<?xml version="1.0" encoding="utf-8"?>
<!-- Generator: Adobe Illustrator 24.2.0, SVG Export Plug-In . SVG Version: 6.00 Build 0)  -->
<svg version="1.1" id="Layer_1" xmlns="http://www.w3.org/2000/svg" xmlns:xlink="http://www.w3.org/1999/xlink" x="0px" y="0px"
	 viewBox="0 0 82.2 16.1" style="enable-background:new 0 0 82.2 16.1;" xml:space="preserve">
<style type="text/css">
	.st0{fill:#01A099;}
	.st1{fill:#476E76;}
	.st2{fill:#90CC93;}
	.st3{clip-path:url(#SVGID_2_);fill:#E9EC99;}
	.st4{clip-path:url(#SVGID_4_);fill:#E9EC99;}
	.st5{clip-path:url(#SVGID_6_);fill:#E9EC99;}
	.st6{clip-path:url(#SVGID_8_);fill:#E9EC99;}
	.st7{clip-path:url(#SVGID_10_);fill:#E9EC99;}
	.st8{clip-path:url(#SVGID_12_);fill:#90CC93;}
	.st9{clip-path:url(#SVGID_14_);fill:#90CC93;}
	.st10{clip-path:url(#SVGID_16_);fill:#90CC93;}
	.st11{clip-path:url(#SVGID_18_);fill:#01A099;}
	.st12{clip-path:url(#SVGID_20_);fill:#01A099;}
	.st13{clip-path:url(#SVGID_22_);fill:#01A099;}
	.st14{clip-path:url(#SVGID_24_);fill:#01A099;}
	.st15{clip-path:url(#SVGID_26_);fill:#90CC93;}
	.st16{clip-path:url(#SVGID_32_);fill:#90CC93;}
</style>
<polygon class="st0" points="14.1,10.7 14.1,8.9 12.5,8 10.9,8.9 10.9,10.7 12.5,11.6 "/>
<polygon class="st1" points="17,10.3 17,8.9 15.8,8.2 14.6,8.9 14.6,10.3 15.8,10.9 "/>
<polygon class="st1" points="18.9,7.6 18.9,5.8 17.4,5 15.8,5.8 15.8,7.6 17.4,8.5 "/>
<polygon class="st1" points="17.7,4.2 17.7,3.1 16.8,2.6 15.8,3.1 15.8,4.2 16.8,4.7 "/>
<polygon class="st2" points="6.7,0 4.9,1 4.9,3.1 6.7,4.2 8.6,3.1 8.6,1 "/>
<g>
	<g>
		<defs>
			<rect id="SVGID_1_" width="82.2" height="16.1"/>
		</defs>
		<clipPath id="SVGID_2_">
			<use xlink:href="#SVGID_1_"  style="overflow:visible;"/>
		</clipPath>
		<path class="st3" d="M4.3,4.3V2.9l0,0L3.1,2.2l0,0L1.9,2.9l0,0v1.3l0,0L3,5l0,0L4.3,4.3L4.3,4.3"/>
	</g>
	<g>
		<defs>
			<rect id="SVGID_3_" width="82.2" height="16.1"/>
		</defs>
		<clipPath id="SVGID_4_">
			<use xlink:href="#SVGID_3_"  style="overflow:visible;"/>
		</clipPath>
		<path class="st4" d="M3.1,8.2V6.5l0,0L1.6,5.6c0,0,0,0-0.1,0L0,6.4l0,0v1.7l0,0L1.5,9c0,0,0,0,0.1,0L3.1,8.2L3.1,8.2"/>
	</g>
	<g>
		<defs>
			<rect id="SVGID_5_" width="82.2" height="16.1"/>
		</defs>
		<clipPath id="SVGID_6_">
			<use xlink:href="#SVGID_5_"  style="overflow:visible;"/>
		</clipPath>
		<path class="st5" d="M3.1,11.5v-1.3l0,0L1.9,9.5l0,0l-1.2,0.7l0,0v1.3l0,0l1.2,0.7l0,0L3.1,11.5C3.1,11.6,3.1,11.5,3.1,11.5"/>
	</g>
	<g>
		<defs>
			<rect id="SVGID_7_" width="82.2" height="16.1"/>
		</defs>
		<clipPath id="SVGID_8_">
			<use xlink:href="#SVGID_7_"  style="overflow:visible;"/>
		</clipPath>
		<path class="st6" d="M5.5,15.5v-1l0,0L4.6,14l0,0l-0.9,0.5l0,0v1l0,0L4.6,16l0,0L5.5,15.5C5.5,15.6,5.5,15.6,5.5,15.5"/>
	</g>
	<g>
		<defs>
			<rect id="SVGID_9_" width="82.2" height="16.1"/>
		</defs>
		<clipPath id="SVGID_10_">
			<use xlink:href="#SVGID_9_"  style="overflow:visible;"/>
		</clipPath>
		<path class="st7" d="M4.9,13.2v-1l0,0L4,11.6l0,0l-0.9,0.5l0,0v1l0,0L4,13.7l0,0L4.9,13.2L4.9,13.2"/>
	</g>
	<g>
		<defs>
			<rect id="SVGID_11_" width="82.2" height="16.1"/>
		</defs>
		<clipPath id="SVGID_12_">
			<use xlink:href="#SVGID_11_"  style="overflow:visible;"/>
		</clipPath>
		<path class="st8" d="M8,13.4V12l0,0l-1.2-0.7l0,0L5.5,12l0,0v1.4l0,0l1.2,0.7l0,0L8,13.4C7.9,13.4,8,13.4,8,13.4"/>
	</g>
	<g>
		<defs>
			<rect id="SVGID_13_" width="82.2" height="16.1"/>
		</defs>
		<clipPath id="SVGID_14_">
			<use xlink:href="#SVGID_13_"  style="overflow:visible;"/>
		</clipPath>
		<path class="st9" d="M10.4,10.6v-2c0,0,0,0,0-0.1l-1.8-1c0,0,0,0-0.1,0l-1.8,1c0,0,0,0,0,0.1v2c0,0,0,0,0,0.1l1.8,1c0,0,0,0,0.1,0
			L10.4,10.6L10.4,10.6"/>
	</g>
	<g>
		<defs>
			<rect id="SVGID_15_" width="82.2" height="16.1"/>
		</defs>
		<clipPath id="SVGID_16_">
			<use xlink:href="#SVGID_15_"  style="overflow:visible;"/>
		</clipPath>
		<path class="st10" d="M7.3,7.2v-2c0,0,0,0,0-0.1l-1.7-1c0,0,0,0-0.1,0l-1.7,1c0,0,0,0,0,0.1v2c0,0,0,0,0,0.1l1.7,1c0,0,0,0,0.1,0
			L7.3,7.2C7.3,7.3,7.3,7.3,7.3,7.2"/>
	</g>
	<g>
		<defs>
			<rect id="SVGID_17_" width="82.2" height="16.1"/>
		</defs>
		<clipPath id="SVGID_18_">
			<use xlink:href="#SVGID_17_"  style="overflow:visible;"/>
		</clipPath>
		<path class="st11" d="M12.2,6.5V4.1c0,0,0,0,0-0.1l-2-1.2h-0.1L8,4c0,0,0,0,0,0.1v2.4v0.1l2,1.2h0.1L12.2,6.5L12.2,6.5"/>
	</g>
	<g>
		<defs>
			<rect id="SVGID_19_" width="82.2" height="16.1"/>
		</defs>
		<clipPath id="SVGID_20_">
			<use xlink:href="#SVGID_19_"  style="overflow:visible;"/>
		</clipPath>
		<path class="st12" d="M15.2,7V5.7l0,0L14,5l0,0l-1.2,0.7l0,0V7l0,0L14,7.7l0,0L15.2,7C15.2,7.1,15.2,7,15.2,7"/>
	</g>
	<g>
		<defs>
			<rect id="SVGID_21_" width="82.2" height="16.1"/>
		</defs>
		<clipPath id="SVGID_22_">
			<use xlink:href="#SVGID_21_"  style="overflow:visible;"/>
		</clipPath>
		<path class="st13" d="M15.2,3.9V2.5l0,0L14,1.8l0,0l-1.2,0.7l0,0v1.3l0,0L14,4.6l0,0L15.2,3.9L15.2,3.9"/>
	</g>
	<g>
		<defs>
			<rect id="SVGID_23_" width="82.2" height="16.1"/>
		</defs>
		<clipPath id="SVGID_24_">
			<use xlink:href="#SVGID_23_"  style="overflow:visible;"/>
		</clipPath>
		<path class="st14" d="M12.2,2.1V0.7l0,0L11,0l0,0L9.8,0.7l0,0V2l0,0L11,2.8l0,0L12.2,2.1L12.2,2.1"/>
	</g>
	<g>
		<defs>
			<rect id="SVGID_25_" width="82.2" height="16.1"/>
		</defs>
		<clipPath id="SVGID_26_">
			<use xlink:href="#SVGID_25_"  style="overflow:visible;"/>
		</clipPath>
		<path class="st15" d="M6.1,10.7V9.3l0,0L4.9,8.6l0,0L3.7,9.3l0,0v1.4l0,0l1.2,0.7l0,0L6.1,10.7L6.1,10.7"/>
	</g>
</g>
<polygon class="st2" points="22.5,5.5 23.4,5.5 24.5,8.7 25.8,5.5 26.7,5.5 26.7,9.3 26,9.3 26,7.4 26,6.6 24.9,9.3 24.1,9.3 
	23.2,6.6 23.2,7.4 23.2,9.3 22.5,9.3 "/>
<polygon class="st2" points="28.7,5.5 31.1,5.5 31.1,6.1 29.5,6.1 29.5,7.1 31,7.1 31,7.7 29.5,7.7 29.5,8.7 31.2,8.7 31.2,9.3 
	28.7,9.3 "/>
<polygon class="st2" points="33.8,6.1 32.6,6.1 32.6,5.5 35.7,5.5 35.7,6.1 34.5,6.1 34.5,9.3 33.8,9.3 "/>
<rect x="37.3" y="5.5" class="st2" width="0.7" height="3.8"/>
<g>
	<g>
		<defs>
			<rect id="SVGID_27_" width="82.2" height="16.1"/>
		</defs>
		<clipPath id="SVGID_28_">
			<use xlink:href="#SVGID_27_"  style="overflow:visible;"/>
		</clipPath>
	</g>
</g>
<path class="st2" d="M51.1,7.5L50.6,6l-0.5,1.5H51.1z M50.2,5.5h0.9l1.3,3.8h-0.8l-0.4-1.2h-1.4l-0.5,1.2h-0.7L50.2,5.5z"/>
<g>
	<g>
		<defs>
			<rect id="SVGID_29_" width="82.2" height="16.1"/>
		</defs>
		<clipPath id="SVGID_30_">
			<use xlink:href="#SVGID_29_"  style="overflow:visible;"/>
		</clipPath>
	</g>
</g>
<path class="st2" d="M60.5,7.5L60,6l-0.5,1.5H60.5z M59.6,5.5h0.9l1.3,3.8H61l-0.4-1.2h-1.4l-0.5,1.2H58L59.6,5.5z"/>
<g>
	<g>
		<defs>
			<rect id="SVGID_31_" width="82.2" height="16.1"/>
		</defs>
		<clipPath id="SVGID_32_">
			<use xlink:href="#SVGID_31_"  style="overflow:visible;"/>
		</clipPath>
		<path class="st16" d="M64.8,8.7c0.9,0,1.3-0.4,1.3-1.3S65.6,6,64.7,6h-0.5v2.7H64.8L64.8,8.7z M63.5,5.5h1.2
			c1.3,0,2.2,0.6,2.2,1.9s-0.8,1.9-2.1,1.9h-1.3C63.5,9.3,63.5,5.5,63.5,5.5z"/>
	</g>
</g>
<polygon class="st2" points="68.7,5.5 71,5.5 71,6.1 69.4,6.1 69.4,7.1 70.9,7.1 70.9,7.7 69.4,7.7 69.4,8.7 71.1,8.7 71.1,9.3 
	68.7,9.3 "/>
<polygon class="st2" points="72.9,5.5 73.9,5.5 75,8.7 76.3,5.5 77.2,5.5 77.2,9.3 76.4,9.3 76.4,7.4 76.4,6.6 75.4,9.3 74.5,9.3 
	73.6,6.6 73.7,7.4 73.7,9.3 72.9,9.3 "/>
<polygon class="st2" points="81.4,5.5 80.4,7.4 79.6,5.5 78.7,5.5 80.1,8 80.1,9.3 80.8,9.3 80.8,8 82.2,5.5 "/>
<rect x="45.8" y="3.1" class="st1" width="0.5" height="8.6"/>
<path class="st2" d="M53.6,7.4c0-1.3,0.7-2,2-2c0.6,0,0.9,0.1,1.1,0.2l-0.2,0.5C56.2,6.1,56,6,55.6,6c-0.7,0-1.3,0.4-1.3,1.3
	c0,0.9,0.6,1.4,1.4,1.4c0.4,0,0.6,0,0.9-0.1l0.2,0.6c-0.3,0.1-0.6,0.2-1.1,0.2C54.3,9.3,53.6,8.6,53.6,7.4"/>
<path class="st2" d="M40,9.1l0.2-0.5c0.3,0.1,0.6,0.2,1,0.2c0.4,0,0.8-0.1,0.8-0.5c0-0.7-1.8-0.6-1.8-1.8c0-0.7,0.6-1,1.3-1
	c0.5,0,0.8,0.1,1.1,0.2l-0.2,0.5c-0.3-0.1-0.5-0.2-0.9-0.2c-0.4,0-0.6,0.1-0.6,0.4c0,0.6,1.8,0.6,1.8,1.8c0,0.8-0.7,1.1-1.5,1.1
	C40.5,9.4,40.2,9.2,40,9.1"/>
</svg>
