<?xml version="1.0" encoding="utf-8"?>
<!-- Generator: Adobe Illustrator 14.0.0, SVG Export Plug-In . SVG Version: 6.00 Build 43363)  -->
<!DOCTYPE svg PUBLIC "-//W3C//DTD SVG 1.1//EN" "http://www.w3.org/Graphics/SVG/1.1/DTD/svg11.dtd">
<svg version="1.1" id="Vrstva_1" xmlns="http://www.w3.org/2000/svg" xmlns:xlink="http://www.w3.org/1999/xlink" x="0px" y="0px"
	 width="479.055px" height="99.49px" viewBox="0 0 479.055 99.49" enable-background="new 0 0 479.055 99.49" xml:space="preserve">
<g>
	<path fill="#FFFFFF" d="M125.885,37.996h12.812l19.177,58.981h-12.006l-4.19-13.054H122.34l-4.271,13.054h-12.086L125.885,37.996z
		 M139.019,73.932l-6.606-21.11l-7.092,21.11H139.019z"/>
	<g>
		<path fill="#FFFFFF" d="M163.918,37.996h11.281v44.398c0,4.269,2.659,4.188,4.996,4.188h20.225v10.395h-24.254
			c-6.365,0-12.248-2.417-12.248-11.441V37.996z"/>
		<path fill="#FFFFFF" d="M207.349,37.996h11.281v44.398c0,4.269,2.659,4.188,4.995,4.188h20.225v10.395h-24.253
			c-6.364,0-12.247-2.417-12.247-11.441V37.996z"/>
		<path fill="#FFFFFF" d="M249.893,52.741c0-11.685,6.93-15.067,15.955-15.23c8.46-0.16,18.129,0.968,22.802,2.338v8.863
			c-5.157-0.484-16.84-0.805-19.741-0.805c-4.915-0.081-7.735,0.241-7.735,5.72v2.9c0,4.674,1.773,5.64,6.285,5.64h9.347
			c11.603,0,13.94,9.106,13.94,15.633v3.949c0,13.375-8.3,15.873-16.277,15.873c-10.072,0-16.678-0.646-22.803-2.418V86.34
			c3.223,0.322,13.054,0.887,20.547,0.887c3.385,0,7.252-0.564,7.252-5.076v-3.143c0-3.385-0.966-5.56-5.317-5.56h-9.024
			c-14.263,0-15.229-10.474-15.229-15.631V52.741z"/>
		<polygon fill="#FFFFFF" points="293.486,37.996 337.078,37.996 337.078,48.39 320.72,48.39 320.72,96.977 309.439,96.977 
			309.439,48.39 293.486,48.39 		"/>
		<path fill="#FFFFFF" d="M352.146,37.996h12.812l19.177,58.981h-12.006l-4.189-13.054h-19.338l-4.271,13.054h-12.086
			L352.146,37.996z M365.28,73.932l-6.607-21.11l-7.09,21.11H365.28z"/>
		<path fill="#FFFFFF" d="M389.373,37.996h25.784c9.267,0,16.116,4.27,16.116,18.37c0,14.584-6.124,16.357-9.428,17.404
			l11.201,23.206h-12.732l-9.75-22.319l-9.91-1.128v23.447h-11.281V37.996z M414.11,64.666c3.868,0,5.801-1.129,5.801-8.3
			c0-6.687-2.255-8.378-5.801-8.378h-13.375v16.678H414.11z"/>
		<path fill="#FFFFFF" d="M438.204,52.741c0-11.685,6.93-15.067,15.954-15.23c8.46-0.16,18.129,0.968,22.803,2.338v8.863
			c-5.156-0.484-16.84-0.805-19.741-0.805c-4.915-0.081-7.735,0.241-7.735,5.72v2.9c0,4.674,1.772,5.64,6.285,5.64h9.347
			c11.603,0,13.938,9.106,13.938,15.633v3.949c0,13.375-8.299,15.873-16.275,15.873c-10.072,0-16.679-0.646-22.803-2.418V86.34
			c3.222,0.322,13.053,0.887,20.547,0.887c3.384,0,7.252-0.564,7.252-5.076v-3.143c0-3.385-0.967-5.56-5.317-5.56h-9.025
			c-14.263,0-15.229-10.474-15.229-15.631V52.741z"/>
		<polygon fill="#E30613" points="0,37.993 39.96,37.993 32.327,61.487 		"/>
		<polygon fill="#E30613" points="74.961,69.737 72.277,61.487 72.277,61.486 104.606,37.999 104.596,37.999 104.604,37.993 
			64.643,37.993 52.302,0 52.302,75.995 52.3,76.001 52.305,75.998 84.629,99.491 		"/>
		<polygon fill="#8E1315" points="64.643,37.993 52.302,0.001 52.302,75.995 78.454,37.998 		"/>
		<polygon fill="#8E1315" points="72.28,61.484 52.301,75.995 74.959,69.732 		"/>
	</g>
</g>
</svg>
